<svg width="136" height="93" viewBox="0 0 136 93" fill="none" xmlns="http://www.w3.org/2000/svg">
<path fill-rule="evenodd" clip-rule="evenodd" d="M22.9839 4.95957C27.5491 2.02334 31.3553 -0.424698 26.0059 -17.5362C18.4343 -41.7561 69.8671 -70.6902 80.4102 -26.2173C83.9428 -11.3161 87.9142 -12.4941 90.6335 -16.412C110.033 -44.3608 152.6 -9.78123 129.023 15.2655C116.41 28.6641 103.196 23.6588 90.43 18.8232C79.3316 14.6192 68.5716 10.5435 58.8393 18.7997C53.6453 23.2059 53.2225 26.2332 52.6897 30.0478C51.9932 35.0346 51.1088 41.3671 39.1304 53.8853C38.4616 54.5843 37.7706 55.2249 37.0609 55.809C38.3158 62.3092 41.3048 79.5641 38.9727 85.6545C34.8132 96.5175 23.4722 93.0398 23.6446 83.3524C23.7685 76.3934 26.0888 66.7371 27.8916 60.2276C6.54105 64.5886 -17.9961 34.4148 21.151 6.18604C21.7623 5.74525 22.3797 5.34814 22.9839 4.95957Z" fill="#FFE03B"/>
</svg>
