<svg width="1184" height="288" viewBox="0 0 1184 288" fill="none" xmlns="http://www.w3.org/2000/svg">
<path d="M521.218 81.3262C427.218 95.7262 461.133 -32.951 409 9.50003C339 66.5 150 123.5 42.5 123.5C-65 123.5 46.7181 269.826 238.718 281.326C430.718 292.826 432.218 365.826 351.218 440.326C270.218 514.826 121.218 511.826 149.218 612.326C177.218 712.826 435.218 567.326 554.718 612.326C674.218 657.326 630.718 744.326 719.718 739.326C808.718 734.326 820.718 621.826 729.718 603.826C638.718 585.826 581.218 445.326 592.718 408.826C604.218 372.326 671.218 327.326 719.718 408.826C768.218 490.326 738.718 627.826 855.218 603.826C971.718 579.826 800.21 372.708 895.218 299.826C983.548 232.067 1144.22 439.326 1179.72 317.826C1215.22 196.326 979.218 233.326 845.718 258.326C712.218 283.326 813.43 123.402 746.218 81.3262C671.74 34.702 638.718 63.3262 521.218 81.3262Z" fill="#FFE03B"/>
</svg>
